<svg width="16" height="16" viewBox="0 0 16 16">
  <path fill="#dcddde" d="M5.456 4.344H10.544C11.37 4.344 12.05 4.992 12.116 5.814L12.472 10.671C12.514 11.268 12.04 11.77 11.442 11.813C11.415 11.815 11.389 11.816 11.362 11.816C10.704 11.816 10.15 11.315 10.078 10.662L9.89 8.813C9.846 8.415 9.505 8.116 9.104 8.116H6.896C6.495 8.116 6.154 8.415 6.11 8.813L5.922 10.662C5.85 11.315 5.296 11.816 4.638 11.816C4.611 11.816 4.585 11.815 4.558 11.813C3.96 11.77 3.486 11.268 3.528 10.671L3.884 5.814C3.95 4.992 4.63 4.344 5.456 4.344ZM7 6H6V7H5V8H6V9H7V8H8V7H7V6ZM10.5 7C10.224 7 10 7.224 10 7.5C10 7.776 10.224 8 10.5 8C10.776 8 11 7.776 11 7.5C11 7.224 10.776 7 10.5 7ZM9.5 8C9.224 8 9 8.224 9 8.5C9 8.776 9.224 9 9.5 9C9.776 9 10 8.776 10 8.5C10 8.224 9.776 8 9.5 8Z"/>
</svg> 