<svg width="16" height="16" viewBox="0 0 16 16">
  <path fill="#1DB954" d="M8 0C3.6 0 0 3.6 0 8s3.6 8 8 8 8-3.6 8-8-3.56-8-8-8zm3.681 11.56c-.16.24-.44.32-.681.16-1.88-1.16-4.24-1.4-7.041-.76-.28.08-.52-.12-.6-.36-.08-.28.12-.52.36-.6 3.04-.72 5.68-.4 7.76.88.28.12.32.44.16.68zm.96-2.2c-.2.28-.56.4-.84.2-2.16-1.32-5.44-1.72-7.96-.92-.32.08-.68-.08-.76-.4-.08-.32.08-.68.4-.76 2.92-.88 6.52-.44 9 1.08.24.12.36.52.16.8zm.08-2.24c-2.592-1.54-6.864-1.68-9.336-.92-.396.12-.812-.12-.932-.48-.12-.396.12-.812.48-.932 2.856-.876 7.596-.696 10.596 1.072.36.2.48.684.28 1.044-.2.34-.68.48-1.088.276z"/>
</svg> 